<?xml version="1.0" encoding="utf-8"?>
<!-- Generator: Adobe Illustrator 27.9.0, SVG Export Plug-In . SVG Version: 6.00 Build 0)  -->
<svg version="1.1" id="Слой_1" xmlns="http://www.w3.org/2000/svg" xmlns:xlink="http://www.w3.org/1999/xlink" x="0px" y="0px"
	 viewBox="0 0 631.06 625.76" style="enable-background:new 0 0 631.06 625.76;" xml:space="preserve">
<style type="text/css">
	.st0{fill:url(#SVGID_1_);}
	.st1{fill:#1146D0;}
	.st2{fill:#C50000;}
	.st3{fill:#000046;}
	.st4{fill:none;}
</style>
<g>
	
		<radialGradient id="SVGID_1_" cx="310.8824" cy="317.4501" r="302.8235" fx="310.9374" fy="83.2941" gradientUnits="userSpaceOnUse">
		<stop  offset="0.93" style="stop-color:#FFFFFF"/>
		<stop  offset="1" style="stop-color:#006CE9"/>
	</radialGradient>
	<path class="st0" d="M613.71,317.45c0,31.09-4.69,61.09-13.39,89.33c-1.27,4.13-2.63,8.21-4.07,12.26
		c-41.75,117.28-153.75,201.24-285.36,201.24c-167.24,0-302.82-135.58-302.82-302.82S143.64,14.63,310.88,14.63
		S613.71,150.21,613.71,317.45z"/>
	<path d="M628.86,317.45c0.4,77.91-31.67,154.69-86.61,209.68c-14.15,14.38-30.16,27.78-46.87,39.06
		c-70.45,48.19-160.26,67.19-244.06,50.81C131.82,594.55,33.02,496.7,9.12,377.49C-26.77,211.16,82.87,43.66,249.59,9.29
		C444.44-32.35,629.25,118.4,628.86,317.45L628.86,317.45z M598.56,317.45c1.08-135.87-98-257.4-231.08-284.46
		C187.3-5.5,15.23,133.27,13.58,317.46c-3.09,187.56,172.1,332.74,355.84,294.15c43.03-9.2,83.68-28.7,117.72-56.51
		c9.19-7.38,18.48-16.02,26.66-24.54c1.28-1.27,3.75-3.91,4.94-5.27c0,0,4.84-5.36,4.84-5.36s4.64-5.53,4.64-5.53
		C573.73,459.69,598.78,388.45,598.56,317.45L598.56,317.45z"/>
</g>
<g>
	<g>
		<path d="M547.89,329.94c-1.5-28.29-3.31-62.31-3.01-87.59h-0.9c-6.92,23.78-15.35,49.06-25.58,77.05l-35.82,98.43h-19.87
			l-32.81-96.62c-9.63-28.59-17.76-54.78-23.48-78.86h-0.6c-0.6,25.28-2.11,59.3-3.91,89.7l-5.42,86.99h-24.98l14.15-202.87h33.41
			l34.61,98.12c8.43,24.98,15.35,47.26,20.47,68.33h0.9c5.12-20.47,12.34-42.74,21.37-68.33l36.12-98.12h33.41l12.64,202.87h-25.58
			L547.89,329.94z"/>
		<path class="st1" d="M559.95,216.17h-33.41l-36.12,98.12c-9.03,25.58-16.25,47.86-21.37,68.33h-0.9
			c-5.12-21.07-12.04-43.34-20.47-68.33l-34.61-98.12h-33.41L365.5,419.04h24.98l5.42-86.99c1.81-30.4,3.31-64.41,3.91-89.7h0.6
			c5.72,24.08,13.85,50.27,23.48,78.86l32.81,96.62h19.87l35.82-98.43c10.23-27.99,18.66-53.28,25.58-77.05h0.9
			c-0.3,25.28,1.5,59.3,3.01,87.59l5.12,89.09h6.01h19.58L559.95,216.17z"/>
	</g>
	<g>
		<path d="M268.27,238.44h-61.7v-22.27h150.2v22.27h-62v180.6h-26.49V238.44z"/>
		<polygon class="st2" points="200.56,238.44 262.26,238.44 262.26,419.04 288.75,419.04 288.75,238.44 350.75,238.44 
			350.75,216.17 200.56,216.17 		"/>
	</g>
	<path d="M186.4,412.41c-9.63,4.82-28.9,9.63-53.58,9.63c-57.19,0-100.23-36.12-100.23-102.64c0-63.51,43.04-106.55,105.95-106.55
		c25.28,0,41.24,5.42,48.16,9.03l-6.32,21.37c-9.93-4.82-24.08-8.43-40.94-8.43c-47.56,0-79.16,30.4-79.16,83.68
		c0,49.66,28.59,81.57,77.96,81.57c15.95,0,32.21-3.31,42.74-8.43L186.4,412.41z"/>
	<path class="st3" d="M133.44,234.83c16.86,0,31,3.61,40.94,8.43l6.32-21.37c-6.92-3.61-22.88-9.03-48.16-9.03
		c-62.91,0-105.95,43.04-105.95,106.55c0,66.52,43.04,102.64,100.23,102.64c24.68,0,43.95-4.82,53.58-9.63l-5.42-20.77
		c-10.53,5.12-26.79,8.43-42.74,8.43c-49.36,0-77.96-31.91-77.96-81.57C54.28,265.23,85.88,234.83,133.44,234.83z"/>
</g>
<line class="st4" x1="596.25" y1="419.04" x2="26.59" y2="419.04"/>
</svg>
